<svg xmlns="http://www.w3.org/2000/svg" xmlns:xlink="http://www.w3.org/1999/xlink" version="1.1" style="" xml:space="preserve" width="54" height="54"><rect id="backgroundrect" width="100%" height="100%" x="0" y="0" fill="none" stroke="none" style="" class=""/>
















<g class="currentLayer" style=""><title>Layer 1</title><g id="svg_1" class="" fill="#5d9b8b" fill-opacity="1" stroke-width="2" stroke="#5d9b8b" stroke-opacity="1">
	<path d="M27,1 C12.664,1 1,12.663 1,27 s11.664,26 26,26 s26,-11.663 26,-26 S41.336,1 27,1 zM27,51 C13.767,51 3,40.233 3,27 S13.767,3 27,3 s24,10.767 24,24 S40.233,51 27,51 z" id="svg_2" fill="#5d9b8b" fill-opacity="1" stroke-width="2" stroke="#5d9b8b"/>
	<path d="M39.5,26 H28 V15 c0,-0.553 -0.44800000000000006,-1 -1,-1 s-1,0.44700000000000006 -1,1 v11 H14.5 c-0.552,0 -1,0.44700000000000006 -1,1 s0.44800000000000006,1 1,1 H26 v12 c0,0.553 0.44800000000000006,1 1,1 s1,-0.44700000000000006 1,-1 V28 h11.5 c0.552,0 1,-0.44700000000000006 1,-1 S40.052,26 39.5,26 z" id="svg_3" fill="#5d9b8b" fill-opacity="1" stroke-width="2" stroke="#5d9b8b"/>
</g><g id="svg_4" class="">
</g><g id="svg_5" class="">
</g><g id="svg_6" class="">
</g><g id="svg_7" class="">
</g><g id="svg_8" class="">
</g><g id="svg_9" class="">
</g><g id="svg_10" class="">
</g><g id="svg_11" class="">
</g><g id="svg_12" class="">
</g><g id="svg_13" class="">
</g><g id="svg_14" class="">
</g><g id="svg_15" class="">
</g><g id="svg_16" class="">
</g><g id="svg_17" class="">
</g><g id="svg_18" class="">
</g></g></svg>