<svg xmlns="http://www.w3.org/2000/svg" xmlns:xlink="http://www.w3.org/1999/xlink" version="1.1" enable-background="new 0 0 129 129" width="129" height="129"><rect id="backgroundrect" width="100%" height="100%" x="0" y="0" fill="none" stroke="none"/>
  
<g class="currentLayer" style=""><title>Layer 1</title><g id="svg_1" class="selected" fill-opacity="1" fill="#5d9b8b">
    <g id="svg_2" fill="#5d9b8b">
      <path d="m64.5,122.4c31.9,0 57.9-26 57.9-57.9s-26-57.9-57.9-57.9-57.9,26-57.9,57.9 26,57.9 57.9,57.9zm0-107.7c27.4-3.55271e-15 49.8,22.3 49.8,49.8s-22.3,49.8-49.8,49.8-49.8-22.4-49.8-49.8 22.4-49.8 49.8-49.8z" id="svg_3" fill="#5d9b8b"/>
      <path d="M37.8,68h53.3c2.3,0,4.1-1.8,4.1-4.1s-1.8-4.1-4.1-4.1H37.8c-2.3,0-4.1,1.8-4.1,4.1S35.6,68,37.8,68z" id="svg_4" fill="#5d9b8b"/>
    </g>
  </g></g></svg>